<mxfile host="app.diagrams.net" modified="2023-10-25T17:34:05.067Z" agent="Mozilla/5.0 (Windows NT 10.0; Win64; x64) AppleWebKit/537.36 (KHTML, like Gecko) Chrome/118.0.0.0 Safari/537.36" etag="W6GSaEw8XkBztZ6A9bUU" version="22.0.8" type="device">
  <diagram name="Page-1" id="M0XJfVMHqU10W8cqJCCS">
    <mxGraphModel dx="1514" dy="1066" grid="0" gridSize="10" guides="1" tooltips="1" connect="1" arrows="1" fold="1" page="0" pageScale="1" pageWidth="850" pageHeight="1100" math="0" shadow="0">
      <root>
        <mxCell id="0" />
        <mxCell id="1" parent="0" />
        <mxCell id="16_8hpfI61OaZuq0bWvg-34" value="" style="rounded=0;whiteSpace=wrap;html=1;fontSize=16;" vertex="1" parent="1">
          <mxGeometry x="-157" y="-60" width="896" height="460" as="geometry" />
        </mxCell>
        <mxCell id="16_8hpfI61OaZuq0bWvg-5" style="edgeStyle=orthogonalEdgeStyle;rounded=0;orthogonalLoop=1;jettySize=auto;html=1;entryX=0.693;entryY=0.025;entryDx=0;entryDy=0;fontSize=12;startSize=8;endSize=8;entryPerimeter=0;" edge="1" parent="1" target="16_8hpfI61OaZuq0bWvg-2">
          <mxGeometry relative="1" as="geometry">
            <mxPoint x="31" y="88" as="sourcePoint" />
            <mxPoint x="262.5" y="153" as="targetPoint" />
          </mxGeometry>
        </mxCell>
        <mxCell id="16_8hpfI61OaZuq0bWvg-6" value="Upload Leaf Image" style="edgeLabel;html=1;align=center;verticalAlign=middle;resizable=0;points=[];fontSize=16;" vertex="1" connectable="0" parent="16_8hpfI61OaZuq0bWvg-5">
          <mxGeometry x="-0.5121" y="3" relative="1" as="geometry">
            <mxPoint x="5" y="3" as="offset" />
          </mxGeometry>
        </mxCell>
        <mxCell id="16_8hpfI61OaZuq0bWvg-1" value="User" style="html=1;dashed=0;whiteSpace=wrap;fontSize=16;" vertex="1" parent="1">
          <mxGeometry x="-69" y="60" width="100" height="100" as="geometry" />
        </mxCell>
        <mxCell id="16_8hpfI61OaZuq0bWvg-19" style="edgeStyle=orthogonalEdgeStyle;rounded=0;orthogonalLoop=1;jettySize=auto;html=1;entryX=0;entryY=0.5;entryDx=0;entryDy=0;fontSize=12;startSize=8;endSize=8;" edge="1" parent="1" source="16_8hpfI61OaZuq0bWvg-2" target="16_8hpfI61OaZuq0bWvg-16">
          <mxGeometry relative="1" as="geometry" />
        </mxCell>
        <mxCell id="16_8hpfI61OaZuq0bWvg-22" style="edgeStyle=none;curved=1;rounded=0;orthogonalLoop=1;jettySize=auto;html=1;entryX=0.5;entryY=0;entryDx=0;entryDy=0;fontSize=12;startSize=8;endSize=8;" edge="1" parent="1" source="16_8hpfI61OaZuq0bWvg-2" target="16_8hpfI61OaZuq0bWvg-20">
          <mxGeometry relative="1" as="geometry" />
        </mxCell>
        <mxCell id="16_8hpfI61OaZuq0bWvg-23" style="edgeStyle=orthogonalEdgeStyle;rounded=0;orthogonalLoop=1;jettySize=auto;html=1;entryX=0;entryY=0.5;entryDx=0;entryDy=0;fontSize=12;startSize=8;endSize=8;" edge="1" parent="1" source="16_8hpfI61OaZuq0bWvg-2" target="16_8hpfI61OaZuq0bWvg-13">
          <mxGeometry relative="1" as="geometry" />
        </mxCell>
        <mxCell id="16_8hpfI61OaZuq0bWvg-29" style="edgeStyle=orthogonalEdgeStyle;rounded=0;orthogonalLoop=1;jettySize=auto;html=1;entryX=0.11;entryY=1.02;entryDx=0;entryDy=0;fontSize=12;startSize=8;endSize=8;entryPerimeter=0;" edge="1" parent="1" target="16_8hpfI61OaZuq0bWvg-1">
          <mxGeometry relative="1" as="geometry">
            <mxPoint x="209" y="261" as="sourcePoint" />
          </mxGeometry>
        </mxCell>
        <mxCell id="16_8hpfI61OaZuq0bWvg-31" value="Identified Disease" style="edgeLabel;html=1;align=center;verticalAlign=middle;resizable=0;points=[];fontSize=16;" vertex="1" connectable="0" parent="16_8hpfI61OaZuq0bWvg-29">
          <mxGeometry x="0.2211" y="-1" relative="1" as="geometry">
            <mxPoint x="104" as="offset" />
          </mxGeometry>
        </mxCell>
        <mxCell id="16_8hpfI61OaZuq0bWvg-2" value="Grow Wise" style="swimlane;fontStyle=0;childLayout=stackLayout;horizontal=1;startSize=20;fillColor=#ffffff;horizontalStack=0;resizeParent=1;resizeParentMax=0;resizeLast=0;collapsible=0;marginBottom=0;swimlaneFillColor=#ffffff;fontSize=16;" vertex="1" parent="1">
          <mxGeometry x="209" y="175" width="150" height="108" as="geometry" />
        </mxCell>
        <mxCell id="16_8hpfI61OaZuq0bWvg-3" style="edgeStyle=orthogonalEdgeStyle;rounded=0;orthogonalLoop=1;jettySize=auto;html=1;entryX=0.9;entryY=0.02;entryDx=0;entryDy=0;entryPerimeter=0;fontSize=12;startSize=8;endSize=8;exitX=1.01;exitY=0.08;exitDx=0;exitDy=0;exitPerimeter=0;" edge="1" parent="1" source="16_8hpfI61OaZuq0bWvg-1" target="16_8hpfI61OaZuq0bWvg-2">
          <mxGeometry relative="1" as="geometry">
            <mxPoint x="89" y="95" as="sourcePoint" />
            <mxPoint x="246" y="162" as="targetPoint" />
          </mxGeometry>
        </mxCell>
        <mxCell id="16_8hpfI61OaZuq0bWvg-4" value="Explore Webapp" style="edgeLabel;html=1;align=center;verticalAlign=middle;resizable=0;points=[];fontSize=16;" vertex="1" connectable="0" parent="16_8hpfI61OaZuq0bWvg-3">
          <mxGeometry x="-0.4988" relative="1" as="geometry">
            <mxPoint x="-19" as="offset" />
          </mxGeometry>
        </mxCell>
        <mxCell id="16_8hpfI61OaZuq0bWvg-7" style="edgeStyle=orthogonalEdgeStyle;rounded=0;orthogonalLoop=1;jettySize=auto;html=1;entryX=0.58;entryY=0.025;entryDx=0;entryDy=0;entryPerimeter=0;fontSize=12;startSize=8;endSize=8;" edge="1" parent="1" source="16_8hpfI61OaZuq0bWvg-1" target="16_8hpfI61OaZuq0bWvg-2">
          <mxGeometry relative="1" as="geometry" />
        </mxCell>
        <mxCell id="16_8hpfI61OaZuq0bWvg-8" value="Upload Soil Test Data" style="edgeLabel;html=1;align=center;verticalAlign=middle;resizable=0;points=[];fontSize=16;" vertex="1" connectable="0" parent="16_8hpfI61OaZuq0bWvg-7">
          <mxGeometry x="-0.4945" y="-2" relative="1" as="geometry">
            <mxPoint x="21" y="-1" as="offset" />
          </mxGeometry>
        </mxCell>
        <mxCell id="16_8hpfI61OaZuq0bWvg-9" style="edgeStyle=orthogonalEdgeStyle;rounded=0;orthogonalLoop=1;jettySize=auto;html=1;fontSize=12;startSize=8;endSize=8;entryX=0.46;entryY=0;entryDx=0;entryDy=0;entryPerimeter=0;" edge="1" parent="1" target="16_8hpfI61OaZuq0bWvg-2">
          <mxGeometry relative="1" as="geometry">
            <mxPoint x="31" y="131" as="sourcePoint" />
            <mxPoint x="222" y="173" as="targetPoint" />
          </mxGeometry>
        </mxCell>
        <mxCell id="16_8hpfI61OaZuq0bWvg-10" value="View Result" style="edgeLabel;html=1;align=center;verticalAlign=middle;resizable=0;points=[];fontSize=16;" vertex="1" connectable="0" parent="16_8hpfI61OaZuq0bWvg-9">
          <mxGeometry x="-0.473" relative="1" as="geometry">
            <mxPoint x="-4" y="-1" as="offset" />
          </mxGeometry>
        </mxCell>
        <mxCell id="16_8hpfI61OaZuq0bWvg-11" style="edgeStyle=orthogonalEdgeStyle;rounded=0;orthogonalLoop=1;jettySize=auto;html=1;entryX=0.353;entryY=0;entryDx=0;entryDy=0;entryPerimeter=0;fontSize=12;startSize=8;endSize=8;exitX=1.02;exitY=0.87;exitDx=0;exitDy=0;exitPerimeter=0;" edge="1" parent="1" source="16_8hpfI61OaZuq0bWvg-1" target="16_8hpfI61OaZuq0bWvg-2">
          <mxGeometry relative="1" as="geometry" />
        </mxCell>
        <mxCell id="16_8hpfI61OaZuq0bWvg-12" value="Search Plant Information" style="edgeLabel;html=1;align=center;verticalAlign=middle;resizable=0;points=[];fontSize=16;" vertex="1" connectable="0" parent="16_8hpfI61OaZuq0bWvg-11">
          <mxGeometry x="-0.3913" y="1" relative="1" as="geometry">
            <mxPoint x="37" as="offset" />
          </mxGeometry>
        </mxCell>
        <mxCell id="16_8hpfI61OaZuq0bWvg-26" style="edgeStyle=orthogonalEdgeStyle;rounded=0;orthogonalLoop=1;jettySize=auto;html=1;entryX=1;entryY=0.5;entryDx=0;entryDy=0;fontSize=12;startSize=8;endSize=8;" edge="1" parent="1" source="16_8hpfI61OaZuq0bWvg-13" target="16_8hpfI61OaZuq0bWvg-2">
          <mxGeometry relative="1" as="geometry" />
        </mxCell>
        <mxCell id="16_8hpfI61OaZuq0bWvg-13" value="Disease Identifier" style="swimlane;fontStyle=0;childLayout=stackLayout;horizontal=1;startSize=19;fillColor=#ffffff;horizontalStack=0;resizeParent=1;resizeParentMax=0;resizeLast=0;collapsible=0;marginBottom=0;swimlaneFillColor=#ffffff;fontSize=16;" vertex="1" parent="1">
          <mxGeometry x="546" y="77.5" width="140" height="65" as="geometry" />
        </mxCell>
        <mxCell id="16_8hpfI61OaZuq0bWvg-18" style="edgeStyle=orthogonalEdgeStyle;rounded=0;orthogonalLoop=1;jettySize=auto;html=1;entryX=1;entryY=0.5;entryDx=0;entryDy=0;fontSize=12;startSize=8;endSize=8;" edge="1" parent="1" source="16_8hpfI61OaZuq0bWvg-16" target="16_8hpfI61OaZuq0bWvg-2">
          <mxGeometry relative="1" as="geometry" />
        </mxCell>
        <mxCell id="16_8hpfI61OaZuq0bWvg-16" value="Crop Recommender" style="swimlane;fontStyle=0;childLayout=stackLayout;horizontal=1;startSize=19;fillColor=#ffffff;horizontalStack=0;resizeParent=1;resizeParentMax=0;resizeLast=0;collapsible=0;marginBottom=0;swimlaneFillColor=#ffffff;fontSize=16;" vertex="1" parent="1">
          <mxGeometry x="548" y="196.5" width="155" height="65" as="geometry" />
        </mxCell>
        <mxCell id="16_8hpfI61OaZuq0bWvg-21" style="edgeStyle=none;curved=1;rounded=0;orthogonalLoop=1;jettySize=auto;html=1;entryX=0.5;entryY=1;entryDx=0;entryDy=0;fontSize=12;startSize=8;endSize=8;" edge="1" parent="1" source="16_8hpfI61OaZuq0bWvg-20" target="16_8hpfI61OaZuq0bWvg-2">
          <mxGeometry relative="1" as="geometry" />
        </mxCell>
        <mxCell id="16_8hpfI61OaZuq0bWvg-20" value="DB" style="html=1;dashed=0;whiteSpace=wrap;shape=mxgraph.dfd.dataStoreID;align=left;spacingLeft=3;points=[[0,0],[0.5,0],[1,0],[0,0.5],[1,0.5],[0,1],[0.5,1],[1,1]];fontSize=16;" vertex="1" parent="1">
          <mxGeometry x="234" y="347" width="100" height="30" as="geometry" />
        </mxCell>
        <mxCell id="16_8hpfI61OaZuq0bWvg-27" style="edgeStyle=orthogonalEdgeStyle;rounded=0;orthogonalLoop=1;jettySize=auto;html=1;entryX=0.75;entryY=1;entryDx=0;entryDy=0;fontSize=12;startSize=8;endSize=8;exitX=0;exitY=0.25;exitDx=0;exitDy=0;" edge="1" parent="1" source="16_8hpfI61OaZuq0bWvg-2" target="16_8hpfI61OaZuq0bWvg-1">
          <mxGeometry relative="1" as="geometry" />
        </mxCell>
        <mxCell id="16_8hpfI61OaZuq0bWvg-28" value="Information Search Result" style="edgeLabel;html=1;align=center;verticalAlign=middle;resizable=0;points=[];fontSize=16;" vertex="1" connectable="0" parent="16_8hpfI61OaZuq0bWvg-27">
          <mxGeometry x="0.3058" y="-2" relative="1" as="geometry">
            <mxPoint x="65" as="offset" />
          </mxGeometry>
        </mxCell>
        <mxCell id="16_8hpfI61OaZuq0bWvg-32" style="edgeStyle=orthogonalEdgeStyle;rounded=0;orthogonalLoop=1;jettySize=auto;html=1;entryX=0.35;entryY=1;entryDx=0;entryDy=0;entryPerimeter=0;fontSize=12;startSize=8;endSize=8;" edge="1" parent="1" source="16_8hpfI61OaZuq0bWvg-2" target="16_8hpfI61OaZuq0bWvg-1">
          <mxGeometry relative="1" as="geometry" />
        </mxCell>
        <mxCell id="16_8hpfI61OaZuq0bWvg-33" value="Suggested Crop" style="edgeLabel;html=1;align=center;verticalAlign=middle;resizable=0;points=[];fontSize=16;" vertex="1" connectable="0" parent="16_8hpfI61OaZuq0bWvg-32">
          <mxGeometry x="0.1859" y="3" relative="1" as="geometry">
            <mxPoint x="57" as="offset" />
          </mxGeometry>
        </mxCell>
        <mxCell id="16_8hpfI61OaZuq0bWvg-35" value="&lt;font style=&quot;font-size: 20px;&quot;&gt;Grow Wise Data Flow Diagram&amp;nbsp;&lt;/font&gt;" style="text;html=1;strokeColor=none;fillColor=none;align=center;verticalAlign=middle;whiteSpace=wrap;rounded=0;fontSize=16;" vertex="1" parent="1">
          <mxGeometry x="151.5" y="-38" width="299" height="30" as="geometry" />
        </mxCell>
      </root>
    </mxGraphModel>
  </diagram>
</mxfile>
